<?xml version="1.0" encoding="UTF-8" standalone="no"?>
<svg
   xmlns:dc="http://purl.org/dc/elements/1.1/"
   xmlns:cc="http://creativecommons.org/ns#"
   xmlns:rdf="http://www.w3.org/1999/02/22-rdf-syntax-ns#"
   xmlns:svg="http://www.w3.org/2000/svg"
   xmlns="http://www.w3.org/2000/svg"
   xmlns:sodipodi="http://sodipodi.sourceforge.net/DTD/sodipodi-0.dtd"
   xmlns:inkscape="http://www.inkscape.org/namespaces/inkscape"
   width="93"
   height="150"
   version="1.1"
   id="svg4974"
   sodipodi:docname="fb.svg"
   inkscape:version="0.92.2 (5c3e80d, 2017-08-06)">
  <metadata
     id="metadata4980">
    <rdf:RDF>
      <cc:Work
         rdf:about="">
        <dc:format>image/svg+xml</dc:format>
        <dc:type
           rdf:resource="http://purl.org/dc/dcmitype/StillImage" />
        <dc:title></dc:title>
      </cc:Work>
    </rdf:RDF>
  </metadata>
  <defs
     id="defs4978" />
  <sodipodi:namedview
     pagecolor="#ffffff"
     bordercolor="#666666"
     borderopacity="1"
     objecttolerance="10"
     gridtolerance="10"
     guidetolerance="10"
     inkscape:pageopacity="0"
     inkscape:pageshadow="2"
     inkscape:window-width="1920"
     inkscape:window-height="1017"
     id="namedview4976"
     showgrid="false"
     inkscape:zoom="4.4500587"
     inkscape:cx="97.966914"
     inkscape:cy="79.25347"
     inkscape:window-x="-8"
     inkscape:window-y="-8"
     inkscape:window-maximized="1"
     inkscape:current-layer="svg4974" />
  <path
     style="fill:#0000ff;stroke:none"
     d="m 49.521726,1.9033766 c 3.031,10.6028004 7.7536,19.5761004 5.331,31.0000004 -2.782,13.1187 -11.0206,24.2747 -17.0725,35.999999 -10.2792,19.915601 -15.8645,45.620004 -3.4977,66.000004 3.1266,5.152 7.3355,9.545 12.2392,13 -1.8231,-13.528 -7.6531,-25.033 -4.7137,-39 5.5332,-26.291903 25.7227,-46.135004 25.7137,-74.000003 -0.004,-13.0725 -5.0211,-27.5010804 -18,-33.0000004 z"
     id="path4360"
     inkscape:connector-curvature="0" />
  <path
     style="fill:#0000ff;stroke:none"
     d="m 23.535371,8.2796359 c 2.0874,6.1703001 5.4096,12.3082001 4.3696,19.0000001 -1.7976,11.5667 -9.286,20.6461 -14.06019,31 -7.7869506,16.8878 -9.0919806,40.144002 7.69059,52.000004 -2.1465,-9.363 -5.42263,-18.300004 -3.1011,-28.000004 0.9958,-4.1606 2.5029,-8.1525 4.3596,-12 8.4726,-17.5572 25.7498,-48.9908 0.7415,-62.0000001 z"
     id="path4398"
     inkscape:connector-curvature="0" />
  <path
     style="fill:#0000ff;stroke:none"
     d="m 73.310329,40.162547 c 1.3743,8.085 4.4727,14.6324 2.2431,22.999999 -2.534,9.5096 -8.8175,17.2086 -12.9198,26 -7.8815,16.890304 -8.9839,41.009004 7.6767,53.000004 -1.4137,-9.609 -5.3551,-18.103 -3.1119,-28 0.937,-4.134 2.2642,-8.122 3.9738,-12 7.8711,-17.854804 25.983104,-47.556903 2.1381,-62.000003 z"
     id="path4452"
     inkscape:connector-curvature="0" />
</svg>
